<svg height="45" viewBox="0 0 102 45" width="102" xmlns="http://www.w3.org/2000/svg"><g fill="none"><path d="m33.4 44.894-2.466-2.513 9.688-9.876 9.596 9.783-2.465 2.512-7.131-7.267z" fill="#375de7"/><path d="m101.963 11.595v-3.752h-5.008v-6.613h-3.68v6.614h-3.012v3.752h3.013v10.824c0 3.174 2.533 5.757 5.647 5.757h3.04v-3.752h-3.04c-1.085 0-1.968-.899-1.968-2.005v-10.825zm-19.988 16.58h3.752v-26.946h-3.752zm-21.11-5.756v-10.824h5.008v-3.752h-5.008v-6.613h-3.68v6.614h-3.013v3.752h3.012v10.824c0 3.174 2.534 5.757 5.648 5.757h3.04v-3.752h-3.04c-1.085 0-1.967-.9-1.967-2.005m-20.335 2.569c3.774 0 6.786-3.07 6.786-6.918 0-3.807-3.012-6.878-6.785-6.878-3.737 0-6.787 3.07-6.787 6.878 0 3.848 3.05 6.918 6.787 6.918zm0-17.643c5.794 0 10.523 4.857 10.523 10.725 0 5.946-4.73 10.765-10.522 10.765-5.796 0-10.524-4.819-10.524-10.765 0-5.868 4.728-10.725 10.524-10.725zm-26.06 9.318h6.775v5.341c-1.98 1.902-4.416 2.91-7.119 2.91-5.712 0-10.319-4.85-10.319-10.478 0-5.665 4.723-10.517 10.319-10.517 2.74 0 5.634 1.319 8.071 3.882l2.552-2.874c-3.009-3.18-6.817-4.928-10.623-4.928-3.77 0-7.31 1.513-10.013 4.231-2.628 2.716-4.113 6.365-4.113 10.206 0 7.918 6.435 14.399 14.126 14.399 4.188 0 8.033-1.94 10.927-5.2v-10.892h-10.583z" fill="#323648"/></g></svg>